# xmcd CD database file
#
# Track frame offsets:
#	150
#	11014
#	36160
#	49161
#	79419
#	103997
#	124866
#	151509
#	169978
#	190325
#
# Disc length: 2792 seconds
#
# Revision: 0
# Processed by: cddbd v1.5.2PL0 Copyright (c) Steve Scherf et al.
# Submitted via: CDex 1.70beta2
#
DISCID=810ae60a
DTITLE=Magnus Hjorth Trio - Old New Borrowed Blue
DYEAR=2009
DGENRE=Jazz
TTITLE0=Qloose
TTITLE1=Ballroom Steps
TTITLE2=Let's Face The Music And Dance
TTITLE3=Good Friday
TTITLE4=The Mistress
TTITLE5=Gumbo
TTITLE6=Stomping At The Savoy
TTITLE7=Barber Rhett
TTITLE8=Sunday Service
TTITLE9=Madhouse
EXTD=YEAR: 2009
EXTT0=
EXTT1=
EXTT2=
EXTT3=
EXTT4=
EXTT5=
EXTT6=
EXTT7=
EXTT8=
EXTT9=
PLAYORDER=
